<?xml version="1.0" encoding="UTF-8" standalone="no"?>
<!-- Created with Inkscape (http://www.inkscape.org/) -->

<svg
   xmlns:dc="http://purl.org/dc/elements/1.1/"
   xmlns:cc="http://creativecommons.org/ns#"
   xmlns:rdf="http://www.w3.org/1999/02/22-rdf-syntax-ns#"
   xmlns:svg="http://www.w3.org/2000/svg"
   xmlns="http://www.w3.org/2000/svg"
   xmlns:sodipodi="http://sodipodi.sourceforge.net/DTD/sodipodi-0.dtd"
   xmlns:inkscape="http://www.inkscape.org/namespaces/inkscape"
   width="512"
   height="384"
   viewBox="0 0 135.46667 101.6"
   version="1.1"
   id="svg8"
   inkscape:version="0.92.1 r"
   sodipodi:docname="icons.svg"
   inkscape:export-filename="/home/yoo2001818/git/devboard/icons.svg.png"
   inkscape:export-xdpi="96"
   inkscape:export-ydpi="96">
  <defs
     id="defs2">
    <marker
       inkscape:stockid="Arrow2Lstart"
       orient="auto"
       refY="0"
       refX="0"
       id="marker4917"
       style="overflow:visible"
       inkscape:isstock="true">
      <path
         id="path4915"
         style="fill:#000000;fill-opacity:1;fill-rule:evenodd;stroke:#000000;stroke-width:0.625;stroke-linejoin:round;stroke-opacity:1"
         d="M 8.7185878,4.0337352 -2.2072895,0.01601326 8.7185884,-4.0017078 c -1.7454984,2.3720609 -1.7354408,5.6174519 -6e-7,8.035443 z"
         transform="matrix(1.1,0,0,1.1,1.1,0)"
         inkscape:connector-curvature="0" />
    </marker>
    <marker
       inkscape:stockid="Arrow1Lstart"
       orient="auto"
       refY="0"
       refX="0"
       id="Arrow1Lstart"
       style="overflow:visible"
       inkscape:isstock="true">
      <path
         id="path4607"
         d="M 0,0 5,-5 -12.5,0 5,5 Z"
         style="fill:#000000;fill-opacity:1;fill-rule:evenodd;stroke:#000000;stroke-width:1.00000003pt;stroke-opacity:1"
         transform="matrix(0.8,0,0,0.8,10,0)"
         inkscape:connector-curvature="0" />
    </marker>
    <marker
       inkscape:stockid="Arrow2Lstart"
       orient="auto"
       refY="0"
       refX="0"
       id="Arrow2Lstart"
       style="overflow:visible"
       inkscape:isstock="true">
      <path
         id="path4625"
         style="fill:#000000;fill-opacity:1;fill-rule:evenodd;stroke:#000000;stroke-width:0.625;stroke-linejoin:round;stroke-opacity:1"
         d="M 8.7185878,4.0337352 -2.2072895,0.01601326 8.7185884,-4.0017078 c -1.7454984,2.3720609 -1.7354408,5.6174519 -6e-7,8.035443 z"
         transform="matrix(1.1,0,0,1.1,1.1,0)"
         inkscape:connector-curvature="0" />
    </marker>
  </defs>
  <sodipodi:namedview
     id="base"
     pagecolor="#ffffff"
     bordercolor="#666666"
     borderopacity="1.0"
     inkscape:pageopacity="0.0"
     inkscape:pageshadow="2"
     inkscape:zoom="1.9628906"
     inkscape:cx="156.82655"
     inkscape:cy="305.12436"
     inkscape:document-units="px"
     inkscape:current-layer="layer2"
     showgrid="false"
     inkscape:snap-bbox="true"
     inkscape:snap-bbox-edge-midpoints="true"
     inkscape:bbox-nodes="true"
     inkscape:snap-bbox-midpoints="true"
     showguides="false"
     inkscape:guide-bbox="true"
     inkscape:window-width="1581"
     inkscape:window-height="1036"
     inkscape:window-x="335"
     inkscape:window-y="20"
     inkscape:window-maximized="0"
     inkscape:snap-intersection-paths="false"
     inkscape:snap-smooth-nodes="true"
     inkscape:measure-start="0,0"
     inkscape:measure-end="0,0"
     inkscape:snap-page="true"
     fit-margin-top="0"
     fit-margin-left="0"
     fit-margin-right="0"
     fit-margin-bottom="0"
     units="px" />
  <metadata
     id="metadata5">
    <rdf:RDF>
      <cc:Work
         rdf:about="">
        <dc:format>image/svg+xml</dc:format>
        <dc:type
           rdf:resource="http://purl.org/dc/dcmitype/StillImage" />
        <dc:title></dc:title>
      </cc:Work>
    </rdf:RDF>
  </metadata>
  <g
     inkscape:groupmode="layer"
     id="layer2"
     inkscape:label="Layer 2"
     transform="translate(0,-195.4)"
     style="display:none">
    <rect
       style="opacity:1;fill:#090909;fill-opacity:1;fill-rule:nonzero;stroke:none;stroke-width:1.99998546;stroke-linecap:round;stroke-linejoin:round;stroke-miterlimit:4;stroke-dasharray:none;stroke-dashoffset:0;stroke-opacity:1;paint-order:stroke markers fill"
       id="rect4669"
       width="135.46667"
       height="101.60001"
       x="0"
       y="195.39999" />
  </g>
  <g
     inkscape:label="Layer 1"
     inkscape:groupmode="layer"
     id="layer1"
     transform="translate(0,-195.4)">
    <g
       id="g4628"
       transform="matrix(0.92849744,0,0,0.92849744,0.39104788,21.400773)">
      <path
         inkscape:connector-curvature="0"
         id="rect4489"
         d="m 10.960532,270.76631 -8.524544,7.81916 8.524544,7.81915 H 33.19638 v -15.63831 z m 6.545337,2.08514 4.320667,4.32067 4.320144,-4.32067 1.41387,1.41439 -4.320147,4.32015 4.320147,4.32015 -1.41387,1.41437 -4.320144,-4.32066 -4.320667,4.32066 -1.413868,-1.41437 4.320149,-4.32015 -4.320149,-4.32015 z"
         style="fill:#ffffff;fill-opacity:1;stroke:#ffffff;stroke-width:0.5;stroke-linecap:round;stroke-linejoin:round;stroke-miterlimit:30;stroke-dasharray:none;stroke-opacity:1" />
      <g
         style="fill:#ffffff;fill-opacity:1;stroke:#ffffff;stroke-opacity:1"
         transform="translate(-37.462865,91.16951)"
         id="g4535">
        <path
           inkscape:connector-curvature="0"
           id="rect4524"
           transform="matrix(0.26458333,0,0,0.26458333,1.1905517e-6,-3.6454417)"
           d="m 208.92773,539.31836 -49.59961,55.11328 h 29.80469 v 34.7793 h 39.5918 v -34.7793 h 29.80469 z"
           style="fill:#ffffff;fill-opacity:1;stroke:#ffffff;stroke-width:1.88976383;stroke-linecap:butt;stroke-linejoin:round;stroke-miterlimit:30;stroke-dasharray:none;stroke-opacity:1" />
      </g>
      <g
         style="fill:#ffffff;fill-opacity:1;stroke:#ffffff;stroke-opacity:1"
         transform="translate(-52.658032,111.52367)"
         id="g4545">
        <path
           id="path4538"
           d="m 118.704,159.778 v 0.99994 c 0,2.07709 -0.20745,3.52975 -0.62683,4.47105 -0.41938,0.94131 -0.98076,1.45147 -2.09186,1.865 -1.78207,0.66324 -5.06032,0.7718 -10.00249,0.79013 v -4.39766 l -12.788884,5.41982 12.788884,5.41931 v -4.42609 c 4.94929,0.0107 8.32757,-0.0487 10.70167,-0.93224 1.48042,-0.55098 2.60326,-1.5385 3.22047,-2.92385 0.61721,-1.38535 0.79892,-3.08715 0.79892,-5.28547 V 159.778 Z"
           style="color:#000000;font-style:normal;font-variant:normal;font-weight:normal;font-stretch:normal;font-size:medium;line-height:normal;font-family:sans-serif;font-variant-ligatures:normal;font-variant-position:normal;font-variant-caps:normal;font-variant-numeric:normal;font-variant-alternates:normal;font-feature-settings:normal;text-indent:0;text-align:start;text-decoration:none;text-decoration-line:none;text-decoration-style:solid;text-decoration-color:#000000;letter-spacing:normal;word-spacing:normal;text-transform:none;writing-mode:lr-tb;direction:ltr;text-orientation:mixed;dominant-baseline:auto;baseline-shift:baseline;text-anchor:start;white-space:normal;shape-padding:0;clip-rule:nonzero;display:inline;overflow:visible;visibility:visible;opacity:1;isolation:auto;mix-blend-mode:normal;color-interpolation:sRGB;color-interpolation-filters:linearRGB;solid-color:#000000;solid-opacity:1;vector-effect:none;fill:#ffffff;fill-opacity:1;fill-rule:nonzero;stroke:#ffffff;stroke-width:0.5;stroke-linecap:square;stroke-linejoin:round;stroke-miterlimit:4;stroke-dasharray:none;stroke-dashoffset:0;stroke-opacity:1;color-rendering:auto;image-rendering:auto;shape-rendering:auto;text-rendering:auto;enable-background:accumulate"
           inkscape:connector-curvature="0" />
      </g>
      <g
         style="fill:none;fill-opacity:1;stroke:#ffffff;stroke-opacity:1"
         transform="translate(-0.98812297,86.568356)"
         id="g4954">
        <path
           inkscape:connector-curvature="0"
           style="fill:none;fill-opacity:1;stroke:#ffffff;stroke-width:2;stroke-linecap:square;stroke-linejoin:round;stroke-miterlimit:4;stroke-dasharray:none;stroke-opacity:1"
           d="M 68.339455,155.5424 A 13.060436,13.060436 0 0 1 55.279018,168.60284 13.060436,13.060436 0 0 1 42.218582,155.5424 13.060436,13.060436 0 0 1 55.279018,142.48197 13.060436,13.060436 0 0 1 68.339455,155.5424 Z"
           id="path4565" />
        <path
           id="path4583"
           d="m 63.484754,155.5424 a 8.2057346,13.060436 0 0 1 -8.205736,13.06044 8.2057346,13.060436 0 0 1 -8.205734,-13.06044 8.2057346,13.060436 0 0 1 8.205734,-13.06043 8.2057346,13.060436 0 0 1 8.205736,13.06043 z"
           style="fill:none;fill-opacity:1;stroke:#ffffff;stroke-width:2;stroke-linecap:square;stroke-linejoin:round;stroke-miterlimit:4;stroke-dasharray:none;stroke-opacity:1"
           inkscape:connector-curvature="0" />
        <path
           style="fill:none;fill-opacity:1;stroke:#ffffff;stroke-width:2;stroke-linecap:butt;stroke-linejoin:miter;stroke-miterlimit:4;stroke-dasharray:none;stroke-opacity:1"
           d="m 55.279017,142.48197 v 26.12087"
           id="path4587"
           inkscape:connector-curvature="0" />
        <path
           inkscape:connector-curvature="0"
           id="path4591"
           d="M 68.339454,152.01847 H 42.218584"
           style="fill:none;fill-opacity:1;stroke:#ffffff;stroke-width:2;stroke-linecap:butt;stroke-linejoin:miter;stroke-miterlimit:4;stroke-dasharray:none;stroke-opacity:1" />
        <path
           style="fill:none;fill-opacity:1;stroke:#ffffff;stroke-width:2;stroke-linecap:butt;stroke-linejoin:miter;stroke-miterlimit:4;stroke-dasharray:none;stroke-opacity:1"
           d="M 68.339454,159.7653 H 42.218584"
           id="path4595"
           inkscape:connector-curvature="0" />
      </g>
      <g
         transform="translate(-37.46283,123.04306)"
         id="g4979">
        <path
           style="fill:#ffffff;fill-opacity:1;stroke:#ffffff;stroke-width:2;stroke-linecap:square;stroke-linejoin:round;stroke-miterlimit:4;stroke-dasharray:none;stroke-opacity:1"
           d="m 128.22843,105.21795 v 23.51619"
           id="path4972"
           inkscape:connector-curvature="0"
           sodipodi:nodetypes="cc" />
        <path
           style="fill:#ffffff;fill-opacity:1;stroke:#ffffff;stroke-width:0.5;stroke-linecap:square;stroke-linejoin:round;stroke-miterlimit:4;stroke-dasharray:none;stroke-opacity:1"
           d="m 122.39572,123.47262 h 11.66542 l -5.83271,10.63254 z"
           id="rect4974"
           inkscape:connector-curvature="0"
           sodipodi:nodetypes="cccc" />
      </g>
      <g
         transform="rotate(-180,127.73436,180.69509)"
         id="g4985">
        <path
           sodipodi:nodetypes="cc"
           inkscape:connector-curvature="0"
           id="path4981"
           d="m 128.22843,105.21795 v 23.51619"
           style="fill:#ffffff;fill-opacity:1;stroke:#ffffff;stroke-width:2;stroke-linecap:square;stroke-linejoin:round;stroke-miterlimit:4;stroke-dasharray:none;stroke-opacity:1" />
        <path
           sodipodi:nodetypes="cccc"
           inkscape:connector-curvature="0"
           id="path4983"
           d="m 122.39572,123.47262 h 11.66542 l -5.83271,10.63254 z"
           style="fill:#ffffff;fill-opacity:1;stroke:#ffffff;stroke-width:0.5;stroke-linecap:square;stroke-linejoin:round;stroke-miterlimit:4;stroke-dasharray:none;stroke-opacity:1" />
      </g>
      <g
         id="g4991"
         transform="rotate(90,29.843996,180.20102)">
        <path
           style="fill:#ffffff;fill-opacity:1;stroke:#ffffff;stroke-width:2;stroke-linecap:square;stroke-linejoin:round;stroke-miterlimit:4;stroke-dasharray:none;stroke-opacity:1"
           d="m 128.22843,105.21795 v 23.51619"
           id="path4987"
           inkscape:connector-curvature="0"
           sodipodi:nodetypes="cc" />
        <path
           style="fill:#ffffff;fill-opacity:1;stroke:#ffffff;stroke-width:0.5;stroke-linecap:square;stroke-linejoin:round;stroke-miterlimit:4;stroke-dasharray:none;stroke-opacity:1"
           d="m 122.39572,123.47262 h 11.66542 l -5.83271,10.63254 z"
           id="path4989"
           inkscape:connector-curvature="0"
           sodipodi:nodetypes="cccc" />
      </g>
      <g
         transform="rotate(-90,207.38738,199.4265)"
         id="g4997">
        <path
           sodipodi:nodetypes="cc"
           inkscape:connector-curvature="0"
           id="path4993"
           d="m 128.22843,105.21795 v 23.51619"
           style="fill:#ffffff;fill-opacity:1;stroke:#ffffff;stroke-width:2;stroke-linecap:square;stroke-linejoin:round;stroke-miterlimit:4;stroke-dasharray:none;stroke-opacity:1" />
        <path
           sodipodi:nodetypes="cccc"
           inkscape:connector-curvature="0"
           id="path4995"
           d="m 122.39572,123.47262 h 11.66542 l -5.83271,10.63254 z"
           style="fill:#ffffff;fill-opacity:1;stroke:#ffffff;stroke-width:0.5;stroke-linecap:square;stroke-linejoin:round;stroke-miterlimit:4;stroke-dasharray:none;stroke-opacity:1" />
      </g>
      <g
         transform="matrix(0,1,1,0,-101.46323,83.490323)"
         id="g5009">
        <path
           sodipodi:nodetypes="cc"
           inkscape:connector-curvature="0"
           id="path5005"
           d="m 128.22843,105.21795 v 23.51619"
           style="fill:#ffffff;fill-opacity:1;stroke:#ffffff;stroke-width:2;stroke-linecap:square;stroke-linejoin:round;stroke-miterlimit:4;stroke-dasharray:none;stroke-opacity:1" />
        <path
           sodipodi:nodetypes="cccc"
           inkscape:connector-curvature="0"
           id="path5007"
           d="m 122.39572,123.47262 h 11.66542 l -5.83271,10.63254 z"
           style="fill:#ffffff;fill-opacity:1;stroke:#ffffff;stroke-width:0.5;stroke-linecap:square;stroke-linejoin:round;stroke-miterlimit:4;stroke-dasharray:none;stroke-opacity:1" />
      </g>
      <g
         id="g5015"
         transform="matrix(0,-1,-1,0,137.09561,327.78179)">
        <path
           style="fill:#ffffff;fill-opacity:1;stroke:#ffffff;stroke-width:2;stroke-linecap:square;stroke-linejoin:round;stroke-miterlimit:4;stroke-dasharray:none;stroke-opacity:1"
           d="m 128.22843,105.21795 v 23.51619"
           id="path5011"
           inkscape:connector-curvature="0"
           sodipodi:nodetypes="cc" />
        <path
           style="fill:#ffffff;fill-opacity:1;stroke:#ffffff;stroke-width:0.5;stroke-linecap:square;stroke-linejoin:round;stroke-miterlimit:4;stroke-dasharray:none;stroke-opacity:1"
           d="m 122.39572,123.47262 h 11.66542 l -5.83271,10.63254 z"
           id="path5013"
           inkscape:connector-curvature="0"
           sodipodi:nodetypes="cccc" />
      </g>
      <path
         inkscape:connector-curvature="0"
         id="path5017"
         d="m 3.740577,193.6461 v 11.81453"
         style="fill:none;stroke:#ffffff;stroke-width:2;stroke-linecap:square;stroke-linejoin:miter;stroke-miterlimit:4;stroke-dasharray:none;stroke-opacity:1" />
      <path
         style="fill:none;stroke:#ffffff;stroke-width:2;stroke-linecap:square;stroke-linejoin:miter;stroke-miterlimit:4;stroke-dasharray:none;stroke-opacity:1"
         d="m 31.891804,205.81148 v 11.81454"
         id="path5019"
         inkscape:connector-curvature="0" />
      <path
         inkscape:connector-curvature="0"
         id="rect4550"
         d="m 52.490022,193.08759 v 3.50002 a 9.1202187,9.1202187 0 0 0 -3.23763,1.46282 l -2.56111,-2.56111 -2.547123,2.54712 2.648855,2.64886 a 9.1202187,9.1202187 0 0 0 -1.209766,3.14989 h -3.840819 v 3.60174 h 3.915846 a 9.1202187,9.1202187 0 0 0 1.265295,3.01933 l -2.779411,2.77941 2.547123,2.54713 2.76203,-2.76204 a 9.1202187,9.1202187 0 0 0 3.03671,1.31532 v 3.84845 h 3.60218 v -3.73527 a 9.1202187,9.1202187 0 0 0 3.23635,-1.22842 l 2.56196,2.56196 2.547118,-2.54713 -2.475058,-2.47506 a 9.1202187,9.1202187 0 0 0 1.483598,-3.32368 h 3.39319 v -3.60174 h -3.31901 a 9.1202187,9.1202187 0 0 0 -1.414078,-3.46738 l 2.331358,-2.33137 -2.547118,-2.54712 -2.3479,2.3479 a 9.1202187,9.1202187 0 0 0 -3.45041,-1.35558 v -3.39405 z m 1.80066,5.76017 a 6.788493,6.788493 0 0 1 6.78852,6.78851 6.788493,6.788493 0 0 1 -6.78852,6.78809 6.788493,6.788493 0 0 1 -6.788085,-6.78809 6.788493,6.788493 0 0 1 6.788085,-6.78851 z"
         style="opacity:1;fill:#ffffff;fill-opacity:1;fill-rule:nonzero;stroke:#ffffff;stroke-width:3;stroke-linecap:square;stroke-linejoin:round;stroke-miterlimit:4;stroke-dasharray:none;stroke-dashoffset:0;stroke-opacity:1;paint-order:stroke markers fill" />
      <circle
         r="11.770402"
         cy="205.63606"
         cx="90.765594"
         id="path4571"
         style="opacity:1;fill:none;fill-opacity:1;fill-rule:nonzero;stroke:#ffffff;stroke-width:3;stroke-linecap:square;stroke-linejoin:round;stroke-miterlimit:4;stroke-dasharray:none;stroke-dashoffset:0;stroke-opacity:1;paint-order:stroke markers fill" />
      <circle
         r="2.2769842"
         cy="202.07022"
         cx="85.696083"
         id="path4573"
         style="opacity:1;fill:#ffffff;fill-opacity:1;fill-rule:nonzero;stroke:none;stroke-width:3;stroke-linecap:square;stroke-linejoin:round;stroke-miterlimit:4;stroke-dasharray:none;stroke-dashoffset:0;stroke-opacity:1;paint-order:stroke markers fill" />
      <circle
         style="opacity:1;fill:#ffffff;fill-opacity:1;fill-rule:nonzero;stroke:none;stroke-width:3;stroke-linecap:square;stroke-linejoin:round;stroke-miterlimit:4;stroke-dasharray:none;stroke-dashoffset:0;stroke-opacity:1;paint-order:stroke markers fill"
         id="circle4575"
         cx="95.749176"
         cy="202.07022"
         r="2.2769842" />
      <path
         sodipodi:open="true"
         d="m 96.112245,207.70181 a 5.3466501,5.3466501 0 0 1 -2.673326,4.63034 5.3466501,5.3466501 0 0 1 -5.34665,0 5.3466501,5.3466501 0 0 1 -2.673325,-4.63034"
         sodipodi:end="3.1415927"
         sodipodi:start="0"
         sodipodi:ry="5.3466501"
         sodipodi:rx="5.3466501"
         sodipodi:cy="207.70181"
         sodipodi:cx="90.765594"
         sodipodi:type="arc"
         id="path4579"
         style="opacity:1;fill:none;fill-opacity:1;fill-rule:nonzero;stroke:#ffffff;stroke-width:2;stroke-linecap:round;stroke-linejoin:round;stroke-miterlimit:4;stroke-dasharray:none;stroke-dashoffset:0;stroke-opacity:1;paint-order:stroke markers fill" />
    </g>
  </g>
</svg>
